<svg width="64" height="64" viewBox="0 0 64 64" fill="none" xmlns="http://www.w3.org/2000/svg">
<path d="M60 13.7798H4C3.60218 13.7798 3.22064 13.9378 2.93934 14.2191C2.65804 14.5004 2.5 14.882 2.5 15.2798V48.7198C2.5 49.1176 2.65804 49.4991 2.93934 49.7804C3.22064 50.0617 3.60218 50.2198 4 50.2198H60C60.3978 50.2198 60.7794 50.0617 61.0607 49.7804C61.342 49.4991 61.5 49.1176 61.5 48.7198V15.2798C61.5 14.882 61.342 14.5004 61.0607 14.2191C60.7794 13.9378 60.3978 13.7798 60 13.7798V13.7798ZM32.7 44.8598H10C9.60218 44.8598 9.22064 44.7018 8.93934 44.4204C8.65804 44.1391 8.5 43.7576 8.5 43.3598C8.5 39.3598 12.28 35.9598 17.67 34.8698V34.7698C16.752 34.1363 16.0245 33.2639 15.5663 32.247C15.108 31.23 14.9364 30.1072 15.07 28.9998C13.91 28.8098 13.18 28.2198 13.34 27.0798C13.57 25.5298 15.64 20.7398 20.16 20.6598C20.1725 20.2633 20.3356 19.8864 20.6161 19.6059C20.8966 19.3254 21.2735 19.1623 21.67 19.1498C22.1 19.1498 25.67 19.1498 27.67 21.4198C29.67 23.6898 29 27.0798 29 27.4598C28.9294 27.7689 28.7626 28.0477 28.5236 28.2561C28.2847 28.4645 27.9858 28.5918 27.67 28.6198C27.85 31.0298 27.22 33.3498 25.07 34.7598V34.8698C30.46 35.9598 34.25 39.3898 34.25 43.3598C34.2501 43.561 34.2097 43.7603 34.1312 43.9456C34.0527 44.1309 33.9378 44.2986 33.7931 44.4385C33.6485 44.5785 33.4772 44.6879 33.2894 44.7603C33.1016 44.8327 32.9012 44.8665 32.7 44.8598V44.8598ZM53.61 37.5298H38C37.6022 37.5298 37.2206 37.3718 36.9393 37.0904C36.658 36.8091 36.5 36.4276 36.5 36.0298C36.5 35.632 36.658 35.2504 36.9393 34.9691C37.2206 34.6878 37.6022 34.5298 38 34.5298H53.61C54.0078 34.5298 54.3894 34.6878 54.6707 34.9691C54.952 35.2504 55.11 35.632 55.11 36.0298C55.11 36.4276 54.952 36.8091 54.6707 37.0904C54.3894 37.3718 54.0078 37.5298 53.61 37.5298V37.5298ZM53.61 30.1998H38C37.6022 30.1998 37.2206 30.0418 36.9393 29.7604C36.658 29.4791 36.5 29.0976 36.5 28.6998C36.5 28.302 36.658 27.9204 36.9393 27.6391C37.2206 27.3578 37.6022 27.1998 38 27.1998H53.61C54.0078 27.1998 54.3894 27.3578 54.6707 27.6391C54.952 27.9204 55.11 28.302 55.11 28.6998C55.11 29.0976 54.952 29.4791 54.6707 29.7604C54.3894 30.0418 54.0078 30.1998 53.61 30.1998V30.1998ZM53.61 22.8698H38C37.6022 22.8698 37.2206 22.7118 36.9393 22.4304C36.658 22.1491 36.5 21.7676 36.5 21.3698C36.5 20.972 36.658 20.5904 36.9393 20.3091C37.2206 20.0278 37.6022 19.8698 38 19.8698H53.61C54.0078 19.8698 54.3894 20.0278 54.6707 20.3091C54.952 20.5904 55.11 20.972 55.11 21.3698C55.11 21.7676 54.952 22.1491 54.6707 22.4304C54.3894 22.7118 54.0078 22.8698 53.61 22.8698V22.8698Z" fill="#ffffff" id="id_101"></path>
<path d="M38 44.8599H53.61C54.0078 44.8599 54.3894 44.7018 54.6707 44.4205C54.952 44.1392 55.11 43.7577 55.11 43.3599C55.11 42.962 54.952 42.5805 54.6707 42.2992C54.3894 42.0179 54.0078 41.8599 53.61 41.8599H38C37.6022 41.8599 37.2206 42.0179 36.9393 42.2992C36.658 42.5805 36.5 42.962 36.5 43.3599C36.5 43.7577 36.658 44.1392 36.9393 44.4205C37.2206 44.7018 37.6022 44.8599 38 44.8599V44.8599Z" fill="#ffffff" id="id_102"></path>
</svg>